<mxfile host="app.diagrams.net" modified="2024-04-02T08:34:25.156Z" agent="Mozilla/5.0 (Windows NT 10.0; Win64; x64) AppleWebKit/537.36 (KHTML, like Gecko) Chrome/122.0.0.0 Safari/537.36 Edg/122.0.0.0" version="24.2.1" etag="YN0bhRjgl2THRuyrPkgY" type="github">
  <diagram name="Page-1" id="_Cl_6I2xYiaHH-ASH5_h">
    <mxGraphModel>
      <root>
        <mxCell id="0" />
        <mxCell id="1" parent="0" />
      </root>
    </mxGraphModel>
  </diagram>
</mxfile>
